<svg width="311" height="80" viewBox="0 0 311 80" fill="none" xmlns="http://www.w3.org/2000/svg">
<path d="M7.86932 1.90347L14.375 23.2103H14.6165L21.1222 1.90347H28.9915L19.1761 30.9944H9.81534L0 1.90347H7.86932ZM39.7053 31.4063C37.4231 31.4063 35.4534 30.9565 33.7962 30.0569C32.1484 29.1478 30.8795 27.8552 29.9893 26.179C29.1087 24.4934 28.6683 22.4906 28.6683 20.1705C28.6683 17.9167 29.1134 15.947 30.0036 14.2614C30.8937 12.5664 32.1484 11.2501 33.7678 10.3126C35.3871 9.3656 37.2952 8.89211 39.4922 8.89211C41.0452 8.89211 42.4657 9.13359 43.7536 9.61654C45.0414 10.0995 46.1541 10.8145 47.0916 11.7614C48.0291 12.7084 48.7583 13.8779 49.2791 15.27C49.8 16.6525 50.0604 18.2387 50.0604 20.0285V21.7614H31.0973V17.7273H43.5973C43.5878 16.9887 43.4126 16.3306 43.0717 15.7529C42.7308 15.1753 42.2621 14.7254 41.6655 14.4035C41.0784 14.072 40.4013 13.9063 39.6342 13.9063C38.8577 13.9063 38.1617 14.0815 37.5462 14.4319C36.9306 14.7728 36.4429 15.2415 36.0831 15.8381C35.7232 16.4253 35.5339 17.0929 35.5149 17.841V21.9461C35.5149 22.8362 35.6901 23.6175 36.0405 24.2898C36.3909 24.9527 36.888 25.4688 37.532 25.8381C38.1759 26.2075 38.9429 26.3921 39.8331 26.3921C40.4486 26.3921 41.0073 26.3069 41.5092 26.1364C42.0111 25.966 42.442 25.715 42.8018 25.3836C43.1617 25.0521 43.4316 24.645 43.6115 24.162L49.9893 24.3467C49.7242 25.7766 49.1418 27.0218 48.2422 28.0825C47.352 29.1336 46.1825 29.9527 44.7337 30.5398C43.2848 31.1175 41.6087 31.4063 39.7053 31.4063ZM53.608 30.9944V9.1762H60.3551V13.1535H60.5824C60.9801 11.7141 61.6288 10.644 62.5284 9.94325C63.428 9.23302 64.4744 8.87791 65.6676 8.87791C65.9896 8.87791 66.321 8.90158 66.6619 8.94893C67.0028 8.98681 67.3201 9.04836 67.6136 9.13359V15.1705C67.2822 15.0569 66.8466 14.9669 66.3068 14.9006C65.7765 14.8343 65.303 14.8012 64.8864 14.8012C64.0625 14.8012 63.3191 14.9859 62.6562 15.3552C62.0028 15.715 61.4867 16.2217 61.108 16.8751C60.7386 17.519 60.554 18.2766 60.554 19.1478V30.9944H53.608ZM70.4439 30.9944V9.1762H77.3899V30.9944H70.4439ZM73.924 6.63359C72.9486 6.63359 72.1106 6.31162 71.4098 5.66768C70.709 5.01427 70.3587 4.22828 70.3587 3.30972C70.3587 2.40063 70.709 1.62412 71.4098 0.98018C72.1106 0.32677 72.9486 6.48499e-05 73.924 6.48499e-05C74.9089 6.48499e-05 75.7469 0.32677 76.4382 0.98018C77.139 1.62412 77.4893 2.40063 77.4893 3.30972C77.4893 4.22828 77.139 5.01427 76.4382 5.66768C75.7469 6.31162 74.9089 6.63359 73.924 6.63359ZM94.2116 9.1762V14.2898H80.1776V9.1762H94.2116ZM83.1037 30.9944V8.06825C83.1037 6.38264 83.4209 4.98586 84.0554 3.87791C84.6899 2.76048 85.5705 1.92715 86.6974 1.37791C87.8243 0.819194 89.1264 0.539837 90.6037 0.539837C91.5696 0.539837 92.4787 0.615596 93.331 0.767112C94.1927 0.909157 94.8319 1.037 95.2486 1.15063L94.1406 6.23586C93.8849 6.15063 93.5724 6.07961 93.2031 6.02279C92.8433 5.96597 92.5024 5.93756 92.1804 5.93756C91.366 5.93756 90.8073 6.11749 90.5043 6.47734C90.2012 6.83719 90.0497 7.32961 90.0497 7.95461V30.9944H83.1037ZM97.5533 30.9944V9.1762H104.499V30.9944H97.5533ZM101.033 6.63359C100.058 6.63359 99.2199 6.31162 98.5192 5.66768C97.8184 5.01427 97.468 4.22828 97.468 3.30972C97.468 2.40063 97.8184 1.62412 98.5192 0.98018C99.2199 0.32677 100.058 6.48499e-05 101.033 6.48499e-05C102.018 6.48499e-05 102.856 0.32677 103.548 0.98018C104.248 1.62412 104.599 2.40063 104.599 3.30972C104.599 4.22828 104.248 5.01427 103.548 5.66768C102.856 6.31162 102.018 6.63359 101.033 6.63359ZM119.105 31.4063C116.804 31.4063 114.83 30.9328 113.182 29.9859C111.544 29.0389 110.284 27.7226 109.403 26.037C108.523 24.3419 108.082 22.3817 108.082 20.1563C108.082 17.9215 108.523 15.9612 109.403 14.2756C110.294 12.5806 111.558 11.2595 113.196 10.3126C114.844 9.3656 116.809 8.89211 119.091 8.89211C121.108 8.89211 122.865 9.2567 124.361 9.98586C125.866 10.715 127.041 11.7472 127.884 13.0825C128.736 14.4082 129.186 15.966 129.233 17.7557H122.741C122.609 16.6383 122.23 15.7624 121.605 15.1279C120.99 14.4934 120.185 14.1762 119.19 14.1762C118.385 14.1762 117.68 14.4035 117.074 14.858C116.468 15.3031 115.994 15.966 115.653 16.8467C115.322 17.7179 115.156 18.7974 115.156 20.0853C115.156 21.3732 115.322 22.4622 115.653 23.3523C115.994 24.233 116.468 24.9006 117.074 25.3552C117.68 25.8003 118.385 26.0228 119.19 26.0228C119.834 26.0228 120.402 25.8855 120.895 25.6109C121.397 25.3362 121.809 24.9338 122.131 24.4035C122.453 23.8637 122.656 23.2103 122.741 22.4432H129.233C129.167 24.2425 128.717 25.8145 127.884 27.1592C127.06 28.5039 125.9 29.5503 124.403 30.2984C122.917 31.037 121.151 31.4063 119.105 31.4063ZM138.938 31.3637C137.546 31.3637 136.31 31.1317 135.231 30.6677C134.161 30.1942 133.313 29.484 132.688 28.537C132.073 27.5806 131.765 26.3826 131.765 24.9432C131.765 23.7311 131.978 22.7084 132.404 21.8751C132.83 21.0417 133.417 20.3646 134.165 19.8438C134.914 19.323 135.775 18.93 136.751 18.6648C137.726 18.3902 138.768 18.2056 139.876 18.1109C141.116 17.9972 142.115 17.8789 142.873 17.7557C143.63 17.6232 144.18 17.4385 144.521 17.2018C144.871 16.9556 145.046 16.6099 145.046 16.1648V16.0938C145.046 15.3646 144.795 14.8012 144.293 14.4035C143.791 14.0057 143.114 13.8069 142.262 13.8069C141.344 13.8069 140.605 14.0057 140.046 14.4035C139.487 14.8012 139.132 15.3504 138.981 16.0512L132.575 15.8239C132.764 14.4982 133.252 13.3145 134.038 12.2728C134.833 11.2217 135.922 10.3978 137.305 9.8012C138.697 9.19514 140.368 8.89211 142.319 8.89211C143.711 8.89211 144.994 9.05783 146.168 9.38927C147.343 9.71124 148.365 10.1847 149.237 10.8097C150.108 11.4253 150.78 12.1828 151.254 13.0825C151.737 13.9821 151.978 15.0095 151.978 16.1648V30.9944H145.444V27.9546H145.273C144.885 28.6932 144.388 29.3182 143.782 29.8296C143.185 30.341 142.48 30.7245 141.665 30.9802C140.861 31.2359 139.951 31.3637 138.938 31.3637ZM141.083 26.8182C141.831 26.8182 142.504 26.6667 143.1 26.3637C143.706 26.0607 144.189 25.644 144.549 25.1137C144.909 24.5739 145.089 23.9489 145.089 23.2387V21.1648C144.89 21.269 144.648 21.3637 144.364 21.4489C144.09 21.5342 143.787 21.6146 143.455 21.6904C143.124 21.7662 142.783 21.8325 142.433 21.8893C142.082 21.9461 141.746 21.9982 141.424 22.0455C140.771 22.1497 140.212 22.3107 139.748 22.5285C139.293 22.7463 138.943 23.0304 138.697 23.3807C138.46 23.7217 138.342 24.1289 138.342 24.6023C138.342 25.322 138.597 25.8713 139.109 26.2501C139.629 26.6289 140.288 26.8182 141.083 26.8182ZM164.194 31.3069C162.584 31.3069 161.121 30.8902 159.805 30.0569C158.488 29.2236 157.437 27.9736 156.651 26.3069C155.865 24.6402 155.472 22.5711 155.472 20.0995C155.472 17.5332 155.879 15.4215 156.694 13.7643C157.508 12.1071 158.574 10.8807 159.89 10.0853C161.216 9.28984 162.641 8.89211 164.165 8.89211C165.311 8.89211 166.291 9.09098 167.106 9.4887C167.92 9.87696 168.593 10.3789 169.123 10.9944C169.653 11.6099 170.056 12.2491 170.33 12.912H170.472V1.90347H177.418V30.9944H170.543V27.4575H170.33C170.037 28.1298 169.62 28.7595 169.08 29.3467C168.54 29.9338 167.863 30.4073 167.049 30.7671C166.244 31.127 165.292 31.3069 164.194 31.3069ZM166.609 25.895C167.451 25.895 168.171 25.6582 168.768 25.1847C169.364 24.7018 169.824 24.0247 170.146 23.1535C170.468 22.2823 170.629 21.2595 170.629 20.0853C170.629 18.8921 170.468 17.8646 170.146 17.0029C169.833 16.1412 169.374 15.4783 168.768 15.0143C168.171 14.5503 167.451 14.3182 166.609 14.3182C165.747 14.3182 165.018 14.555 164.421 15.0285C163.825 15.502 163.37 16.1696 163.058 17.0313C162.754 17.8931 162.603 18.9111 162.603 20.0853C162.603 21.2595 162.759 22.2823 163.072 23.1535C163.384 24.0247 163.834 24.7018 164.421 25.1847C165.018 25.6582 165.747 25.895 166.609 25.895ZM191.996 31.4063C189.704 31.4063 187.734 30.9376 186.087 30.0001C184.448 29.0531 183.184 27.7368 182.294 26.0512C181.413 24.3561 180.973 22.3912 180.973 20.1563C180.973 17.912 181.413 15.947 182.294 14.2614C183.184 12.5664 184.448 11.2501 186.087 10.3126C187.734 9.3656 189.704 8.89211 191.996 8.89211C194.287 8.89211 196.252 9.3656 197.891 10.3126C199.538 11.2501 200.803 12.5664 201.683 14.2614C202.573 15.947 203.018 17.912 203.018 20.1563C203.018 22.3912 202.573 24.3561 201.683 26.0512C200.803 27.7368 199.538 29.0531 197.891 30.0001C196.252 30.9376 194.287 31.4063 191.996 31.4063ZM192.038 26.1648C192.872 26.1648 193.577 25.9092 194.155 25.3978C194.732 24.8864 195.173 24.1762 195.476 23.2671C195.788 22.358 195.945 21.3069 195.945 20.1137C195.945 18.9016 195.788 17.841 195.476 16.9319C195.173 16.0228 194.732 15.3126 194.155 14.8012C193.577 14.2898 192.872 14.0342 192.038 14.0342C191.177 14.0342 190.447 14.2898 189.851 14.8012C189.264 15.3126 188.814 16.0228 188.501 16.9319C188.198 17.841 188.047 18.9016 188.047 20.1137C188.047 21.3069 188.198 22.358 188.501 23.2671C188.814 24.1762 189.264 24.8864 189.851 25.3978C190.447 25.9092 191.177 26.1648 192.038 26.1648ZM206.577 30.9944V9.1762H213.324V13.1535H213.551C213.949 11.7141 214.598 10.644 215.497 9.94325C216.397 9.23302 217.443 8.87791 218.636 8.87791C218.958 8.87791 219.29 8.90158 219.631 8.94893C219.972 8.98681 220.289 9.04836 220.582 9.13359V15.1705C220.251 15.0569 219.815 14.9669 219.276 14.9006C218.745 14.8343 218.272 14.8012 217.855 14.8012C217.031 14.8012 216.288 14.9859 215.625 15.3552C214.972 15.715 214.455 16.2217 214.077 16.8751C213.707 17.519 213.523 18.2766 213.523 19.1478V30.9944H206.577ZM133.139 79.3069C131.529 79.3069 130.066 78.8902 128.75 78.0569C127.434 77.2236 126.383 75.9736 125.597 74.3069C124.811 72.6402 124.418 70.5711 124.418 68.0995C124.418 65.5332 124.825 63.4215 125.639 61.7643C126.454 60.1071 127.519 58.8807 128.835 58.0853C130.161 57.2898 131.586 56.8921 133.111 56.8921C134.257 56.8921 135.237 57.091 136.051 57.4887C136.866 57.877 137.538 58.3789 138.068 58.9944C138.598 59.6099 139.001 60.2491 139.276 60.912H139.418V49.9035H146.364V78.9944H139.489V75.4575H139.276C138.982 76.1298 138.565 76.7595 138.026 77.3467C137.486 77.9338 136.809 78.4073 135.994 78.7671C135.189 79.127 134.238 79.3069 133.139 79.3069ZM135.554 73.895C136.397 73.895 137.116 73.6582 137.713 73.1847C138.31 72.7018 138.769 72.0247 139.091 71.1535C139.413 70.2823 139.574 69.2595 139.574 68.0853C139.574 66.8921 139.413 65.8646 139.091 65.0029C138.778 64.1412 138.319 63.4783 137.713 63.0143C137.116 62.5503 136.397 62.3182 135.554 62.3182C134.692 62.3182 133.963 62.555 133.366 63.0285C132.77 63.502 132.315 64.1696 132.003 65.0313C131.7 65.8931 131.548 66.9111 131.548 68.0853C131.548 69.2595 131.705 70.2823 132.017 71.1535C132.33 72.0247 132.779 72.7018 133.366 73.1847C133.963 73.6582 134.692 73.895 135.554 73.895ZM160.955 79.4063C158.673 79.4063 156.703 78.9565 155.046 78.0569C153.398 77.1478 152.129 75.8552 151.239 74.179C150.359 72.4934 149.918 70.4906 149.918 68.1705C149.918 65.9167 150.363 63.947 151.254 62.2614C152.144 60.5664 153.398 59.2501 155.018 58.3126C156.637 57.3656 158.545 56.8921 160.742 56.8921C162.295 56.8921 163.716 57.1336 165.004 57.6165C166.291 58.0995 167.404 58.8145 168.342 59.7614C169.279 60.7084 170.008 61.8779 170.529 63.27C171.05 64.6525 171.31 66.2387 171.31 68.0285V69.7614H152.347V65.7273H164.847C164.838 64.9887 164.663 64.3306 164.322 63.7529C163.981 63.1753 163.512 62.7254 162.915 62.4035C162.328 62.072 161.651 61.9063 160.884 61.9063C160.108 61.9063 159.412 62.0815 158.796 62.4319C158.181 62.7728 157.693 63.2415 157.333 63.8381C156.973 64.4253 156.784 65.0929 156.765 65.841V69.9461C156.765 70.8362 156.94 71.6175 157.29 72.2898C157.641 72.9527 158.138 73.4688 158.782 73.8381C159.426 74.2075 160.193 74.3921 161.083 74.3921C161.699 74.3921 162.257 74.3069 162.759 74.1364C163.261 73.966 163.692 73.715 164.052 73.3836C164.412 73.0521 164.682 72.645 164.862 72.162L171.239 72.3467C170.974 73.7766 170.392 75.0218 169.492 76.0825C168.602 77.1336 167.433 77.9527 165.984 78.5398C164.535 79.1175 162.859 79.4063 160.955 79.4063ZM183.452 78.9944V49.9035H203.736V55.6137H190.483V61.5796H202.699V67.304H190.483V73.2842H203.736V78.9944H183.452ZM208.139 78.9944V57.1762H214.744V61.1819H214.986C215.44 59.8561 216.207 58.8097 217.287 58.0427C218.366 57.2756 219.654 56.8921 221.151 56.8921C222.666 56.8921 223.963 57.2804 225.043 58.0569C226.122 58.8334 226.809 59.8751 227.102 61.1819H227.33C227.737 59.8845 228.532 58.8476 229.716 58.0711C230.9 57.2851 232.296 56.8921 233.906 56.8921C235.971 56.8921 237.647 57.555 238.935 58.8807C240.223 60.197 240.866 62.0057 240.866 64.3069V78.9944H233.92V65.8978C233.92 64.8088 233.641 63.9802 233.082 63.412C232.524 62.8343 231.799 62.5455 230.909 62.5455C229.953 62.5455 229.2 62.858 228.651 63.483C228.111 64.0986 227.841 64.9271 227.841 65.9688V78.9944H221.165V65.8268C221.165 64.8135 220.89 64.0133 220.341 63.4262C219.792 62.8391 219.067 62.5455 218.168 62.5455C217.562 62.5455 217.027 62.6923 216.562 62.9859C216.098 63.27 215.734 63.6771 215.469 64.2075C215.213 64.7378 215.085 65.3628 215.085 66.0825V78.9944H208.139ZM251.321 79.3637C249.929 79.3637 248.693 79.1317 247.614 78.6677C246.544 78.1942 245.696 77.484 245.071 76.537C244.455 75.5806 244.148 74.3826 244.148 72.9432C244.148 71.7311 244.361 70.7084 244.787 69.8751C245.213 69.0417 245.8 68.3646 246.548 67.8438C247.296 67.323 248.158 66.93 249.134 66.6648C250.109 66.3902 251.151 66.2056 252.259 66.1109C253.499 65.9972 254.498 65.8789 255.256 65.7557C256.013 65.6232 256.563 65.4385 256.903 65.2018C257.254 64.9556 257.429 64.6099 257.429 64.1648V64.0938C257.429 63.3646 257.178 62.8012 256.676 62.4035C256.174 62.0057 255.497 61.8069 254.645 61.8069C253.726 61.8069 252.988 62.0057 252.429 62.4035C251.87 62.8012 251.515 63.3504 251.364 64.0512L244.957 63.8239C245.147 62.4982 245.634 61.3145 246.42 60.2728C247.216 59.2217 248.305 58.3978 249.688 57.8012C251.08 57.1951 252.751 56.8921 254.702 56.8921C256.094 56.8921 257.377 57.0578 258.551 57.3893C259.725 57.7112 260.748 58.1847 261.619 58.8097C262.491 59.4253 263.163 60.1828 263.636 61.0825C264.119 61.9821 264.361 63.0095 264.361 64.1648V78.9944H257.827V75.9546H257.656C257.268 76.6932 256.771 77.3182 256.165 77.8296C255.568 78.341 254.863 78.7245 254.048 78.9802C253.243 79.2359 252.334 79.3637 251.321 79.3637ZM253.466 74.8182C254.214 74.8182 254.886 74.6667 255.483 74.3637C256.089 74.0607 256.572 73.644 256.932 73.1137C257.292 72.5739 257.472 71.9489 257.472 71.2387V69.1648C257.273 69.269 257.031 69.3637 256.747 69.4489C256.473 69.5342 256.17 69.6146 255.838 69.6904C255.507 69.7662 255.166 69.8325 254.815 69.8893C254.465 69.9461 254.129 69.9982 253.807 70.0455C253.153 70.1497 252.595 70.3107 252.131 70.5285C251.676 70.7463 251.326 71.0304 251.08 71.3807C250.843 71.7217 250.724 72.1289 250.724 72.6023C250.724 73.322 250.98 73.8713 251.491 74.2501C252.012 74.6289 252.67 74.8182 253.466 74.8182ZM268.608 78.9944V57.1762H275.554V78.9944H268.608ZM272.088 54.6336C271.113 54.6336 270.275 54.3116 269.574 53.6677C268.873 53.0143 268.523 52.2283 268.523 51.3097C268.523 50.4006 268.873 49.6241 269.574 48.9802C270.275 48.3268 271.113 48.0001 272.088 48.0001C273.073 48.0001 273.911 48.3268 274.602 48.9802C275.303 49.6241 275.653 50.4006 275.653 51.3097C275.653 52.2283 275.303 53.0143 274.602 53.6677C273.911 54.3116 273.073 54.6336 272.088 54.6336ZM286.921 49.9035V78.9944H279.975V49.9035H286.921ZM310.391 63.8381L304.013 64.0086C303.946 63.554 303.767 63.1516 303.473 62.8012C303.179 62.4414 302.796 62.162 302.322 61.9631C301.858 61.7548 301.319 61.6506 300.703 61.6506C299.898 61.6506 299.212 61.8116 298.643 62.1336C298.085 62.4556 297.81 62.8912 297.82 63.4404C297.81 63.8665 297.981 64.2359 298.331 64.5484C298.691 64.8609 299.33 65.1118 300.249 65.3012L304.453 66.0967C306.631 66.5133 308.25 67.2046 309.311 68.1705C310.381 69.1364 310.921 70.4148 310.93 72.0057C310.921 73.502 310.476 74.804 309.595 75.912C308.724 77.02 307.531 77.8817 306.016 78.4972C304.5 79.1033 302.768 79.4063 300.817 79.4063C297.701 79.4063 295.244 78.7671 293.445 77.4887C291.655 76.2008 290.632 74.4773 290.376 72.3182L297.237 72.1478C297.389 72.9432 297.782 73.5493 298.416 73.966C299.051 74.3826 299.86 74.591 300.845 74.591C301.735 74.591 302.46 74.4253 303.018 74.0938C303.577 73.7624 303.861 73.322 303.871 72.7728C303.861 72.2804 303.643 71.8874 303.217 71.5938C302.791 71.2908 302.124 71.054 301.214 70.8836L297.408 70.1592C295.22 69.7614 293.591 69.0275 292.521 67.9575C291.451 66.8779 290.921 65.5048 290.93 63.8381C290.921 62.3798 291.309 61.1345 292.095 60.1023C292.881 59.0607 293.999 58.2652 295.447 57.716C296.896 57.1667 298.606 56.8921 300.575 56.8921C303.53 56.8921 305.859 57.5124 307.564 58.7529C309.268 59.984 310.211 61.679 310.391 63.8381Z" fill="black"/>
</svg>
